{"title":"Rio 2 2014 Blu-Ray 720p x264 5.1 Ch. AC-3 English YsB TeaM SSX","uid":10431132,"size":803793517,"categoryP":"video","categoryS":"movies","magnet":"?xt=urn:btih:97680f9ca766e2c6499d3fad43f0d03a9b105bf2&amp;dn=Rio+2+2014+Blu-Ray+720p+x264+5.1+Ch.+AC-3+English+YsB+TeaM+SSX&amp;tr=udp%3A%2F%2Ftracker.openbittorrent.com%3A80&amp;tr=udp%3A%2F%2Fopen.demonii.com%3A1337&amp;tr=udp%3A%2F%2Ftracker.coppersurfer.tk%3A6969&amp;tr=udp%3A%2F%2Fexodus.desync.com%3A6969","seeders":2,"leechers":0,"uploader":"Dj_YsB","files":8,"time":1403802029,"description":"Rio 2 2014 Blu-Ray 720p x264 5.1 Ch. AC-3 English YsB TeaM SSX\n\n &lt;a href=&quot;\nhttp://i.imgur.com/5uBV8Fi.jpg&quot; rel=&quot;nofollow&quot; target=&quot;_NEW&quot;&gt;\nhttp://i.imgur.com/5uBV8Fi.jpg&lt;/a&gt;\n\n\nInfo:\nGeneral\nComplete name                            : Rio 2 2014 Blu-Ray 720p x264 5.1 Ch. AC-3 English YsB TeaM SSX.mkv\nFormat                                   : Matroska\nFile size                                : 755 MiB\nDuration                                 : 1h 41mn\nOverall bit rate                         : 1 044 Kbps\nMovie name                               : Rio 2 2014 Blu-Ray 720p x264 5.1 Ch. AC-3 English YsB TeaM SSX\n\nVideo\nID                                       : 1\nFormat                                   : AVC\nDuration                                 : 1h 41mn\nBit rate                                 : 850 Kbps\nWidth                                    : 1 280 pixels\nHeight                                   : 528 pixels\nFrame rate                               : 23.976 fps\nStream size                              : 601 MiB (80%)\nTitle                                    : YsB TeaM SSX\n\nAudio\nID                                       : 2\nFormat                                   : AC-3\nDuration                                 : 1h 41mn\nBit rate                                 : 192 Kbps\nChannel(s)                               : 6 channels\nChannel positions                        : Front: L C R, Side: L R, LFE\nSampling rate                            : 48.0 KHz\nStream size                              : 139 MiB (18%)\nTitle                                    : YsB TeaM SSX\nLanguage                                 : English\n\nText #1\nID                                       : 3\nFormat                                   : UTF-8\nCodec ID                                 : S_TEXT/UTF8\nCodec ID/Info                            : UTF-8 Plain Text\nTitle                                    : YsB TeaM SSX\nLanguage                                 : English\nDefault                                  : No\nForced                                   : No\n\nText #2\nID                                       : 4\nFormat                                   : UTF-8\nCodec ID                                 : S_TEXT/UTF8\nCodec ID/Info                            : UTF-8 Plain Text\nTitle                                    : YsB TeaM SSX\nLanguage                                 : English\nDefault                                  : No\nForced                                   : No\n\nMenu\n00:00:00.000                             : en:00:00:00.000\n00:03:10.816                             : en:00:03:10.816\n00:05:14.314                             : en:00:05:14.314\n00:08:49.362                             : en:00:08:49.362\n00:13:02.240                             : en:00:13:02.240\n00:17:36.305                             : en:00:17:36.305\n00:19:19.408                             : en:00:19:19.408\n00:22:30.349                             : en:00:22:30.349\n00:26:48.690                             : en:00:26:48.690\n00:29:00.155                             : en:00:29:00.155\n00:30:59.691                             : en:00:30:59.691\n00:33:46.566                             : en:00:33:46.566\n00:36:34.192                             : en:00:36:34.192\n00:39:20.233                             : en:00:39:20.233\n00:41:32.657                             : en:00:41:32.657\n00:45:05.119                             : en:00:45:05.119\n00:47:23.090                             : en:00:47:23.090\n00:49:58.162                             : en:00:49:58.162\n00:52:05.456                             : en:00:52:05.456\n00:55:38.919                             : en:00:55:38.919\n00:58:10.904                             : en:00:58:10.904\n01:02:11.394                             : en:01:02:11.394\n01:04:38.083                             : en:01:04:38.083\n01:07:03.937                             : en:01:07:03.937\n01:09:18.196                             : en:01:09:18.196\n01:10:21.342                             : en:01:10:21.342\n01:15:17.763                             : en:01:15:17.763\n01:17:00.157                             : en:01:17:00.157\n01:21:41.855                             : en:01:21:41.855\n01:25:24.619                             : en:01:25:24.619\n01:29:42.711                             : en:01:29:42.711\n01:32:27.959                             : en:01:32:27.959\n\n\nScreenShot: &lt;a href=&quot;\nhttp://i.imgur.com/l7iUe2e.jpg&quot; rel=&quot;nofollow&quot; target=&quot;_NEW&quot;&gt;\nhttp://i.imgur.com/l7iUe2e.jpg&lt;/a&gt; &lt;a href=&quot;\nhttp://i.imgur.com/tiDJC1K.jpg&quot; rel=&quot;nofollow&quot; target=&quot;_NEW&quot;&gt;\nhttp://i.imgur.com/tiDJC1K.jpg&lt;/a&gt; &lt;a href=&quot;\nhttp://i.imgur.com/eEx3USe.jpg&quot; rel=&quot;nofollow&quot; target=&quot;_NEW&quot;&gt;\nhttp://i.imgur.com/eEx3USe.jpg&lt;/a&gt;\n\n\nThanks\nTeaM SSX - Maverick Dude, Hari, Hemkumar, Sajan...","torrent":{"xt":"urn:btih:97680f9ca766e2c6499d3fad43f0d03a9b105bf2","amp;dn":"Rio+2+2014+Blu-Ray+720p+x264+5.1+Ch.+AC-3+English+YsB+TeaM+SSX","amp;tr":["udp%3A%2F%2Ftracker.openbittorrent.com%3A80","udp%3A%2F%2Fopen.demonii.com%3A1337","udp%3A%2F%2Ftracker.coppersurfer.tk%3A6969","udp%3A%2F%2Fexodus.desync.com%3A6969"],"infoHash":"97680f9ca766e2c6499d3fad43f0d03a9b105bf2","infoHashBuffer":{"type":"Buffer","data":[151,104,15,156,167,102,226,198,73,157,63,173,67,240,208,58,155,16,91,242]},"announce":[],"urlList":[]}}